<?xml version="1.0" encoding="utf-8"?>
<!-- Generator: Adobe Illustrator 18.1.0, SVG Export Plug-In . SVG Version: 6.00 Build 0)  -->
<!DOCTYPE svg PUBLIC "-//W3C//DTD SVG 1.1//EN" "http://www.w3.org/Graphics/SVG/1.1/DTD/svg11.dtd">
<svg version="1.1" id="Layer_2" xmlns="http://www.w3.org/2000/svg" xmlns:xlink="http://www.w3.org/1999/xlink" x="0px" y="0px"
	 viewBox="0 1.6 38.4 38.4" enable-background="new 0 1.6 38.4 38.4" xml:space="preserve">
<path fill="#364549" d="M25.1,20.8l13-13c0.3-0.3,0.3-0.8,0-1.1l-4.8-4.8c-0.2-0.2-0.4-0.2-0.6-0.2s-0.4,0.1-0.6,0.2l-13,13l-13-13
	c-0.3-0.3-0.8-0.3-1.1,0L0.3,6.7C0,7,0,7.5,0.3,7.8l13,13l-13,13c-0.3,0.3-0.3,0.8,0,1.1L5,39.8C5.2,39.9,5.4,40,5.6,40
	c0.2,0,0.4-0.1,0.6-0.2l13-13l13,13c0.2,0.2,0.4,0.2,0.6,0.2s0.4-0.1,0.6-0.2l4.8-4.8c0.3-0.3,0.3-0.8,0-1.1L25.1,20.8z"/>
</svg>
