<?xml version="1.0" encoding="utf-8"?>
<!-- Generator: Adobe Illustrator 18.1.0, SVG Export Plug-In . SVG Version: 6.00 Build 0)  -->
<!DOCTYPE svg PUBLIC "-//W3C//DTD SVG 1.1//EN" "http://www.w3.org/Graphics/SVG/1.1/DTD/svg11.dtd">
<svg version="1.1"
	 id="svg3654" xmlns:inkscape="http://www.inkscape.org/namespaces/inkscape" xmlns:dc="http://purl.org/dc/elements/1.1/" xmlns:svg="http://www.w3.org/2000/svg" xmlns:cc="http://creativecommons.org/ns#" xmlns:rdf="http://www.w3.org/1999/02/22-rdf-syntax-ns#" xmlns:sodipodi="http://sodipodi.sourceforge.net/DTD/sodipodi-0.dtd" sodipodi:docname="New document 5" inkscape:version="0.48.3.1 r9886"
	 xmlns="http://www.w3.org/2000/svg" xmlns:xlink="http://www.w3.org/1999/xlink" x="0px" y="0px" viewBox="927.2 73.4 540 111.4"
	 enable-background="new 927.2 73.4 540 111.4" xml:space="preserve">
<sodipodi:namedview  borderopacity="1.0" inkscape:zoom="0.24748737" fit-margin-top="0" inkscape:cx="698.6362" bordercolor="#666666" pagecolor="#ffffff" id="base" inkscape:cy="100.62619" showgrid="false" fit-margin-left="0" inkscape:current-layer="g3180" inkscape:window-x="49" fit-margin-right="0" inkscape:pageshadow="2" inkscape:document-units="px" inkscape:pageopacity="0.0" inkscape:window-y="24" fit-margin-bottom="0" inkscape:window-width="1317" inkscape:window-height="744" inkscape:window-maximized="1">
	</sodipodi:namedview>
<path id="path3765" fill="#37ABC8" d="M1398,149.6c-3.2,0-5.9-1.2-7.9-3.7c-2.1-2.4-3.1-5.9-3.1-10.5c0-4.6,1.3-8.3,3.9-11.2
	c2.6-2.9,5.9-4.3,9.7-4.3c3.9,0,7.4,1.1,10.5,3.3v20l0.6,5.6l-3.7,0.3l-1-5.1C1404.8,147.7,1401.8,149.6,1398,149.6 M1391.2,135.3
	c0,3.4,0.7,6,2.1,7.8c1.4,1.8,3.2,2.7,5.4,2.7c2.2,0,4.1-1.1,5.7-3.3c1.5-2.2,2.3-5.4,2.3-9.5v-7.8c-1.9-0.9-3.9-1.4-6-1.4
	c-2.8,0-5.1,1.1-6.9,3.3C1392.1,129.1,1391.2,131.9,1391.2,135.3 M1371.4,149.6c-3.4,0-6.2-1.2-8.4-3.5c-2.2-2.4-3.3-5.8-3.3-10.4
	c0-4.6,1.3-8.3,3.9-11.3c2.6-3,5.9-4.4,10.1-4.4c2.6,0,4.7,0.8,6.3,2.4c1.6,1.6,2.4,3.6,2.4,6c0,2.4-1.2,4.5-3.7,6.5
	c-2.4,2-6,3-10.7,3c-1.2,0-2.5-0.1-3.9-0.2c0.3,2.7,1.1,4.7,2.4,6.1c1.4,1.4,3.1,2.1,5,2.1c3.3,0,6-1,8.1-3l2,2.8
	C1378.9,148.2,1375.4,149.6,1371.4,149.6 M1373.5,123.7c-2.6,0-4.7,0.9-6.5,2.8c-1.7,1.8-2.7,4.3-3,7.3c1.2,0.2,2.6,0.3,4.1,0.3
	c3.2,0,5.7-0.6,7.4-1.8c1.7-1.2,2.6-2.6,2.6-4.2c0-1.2-0.4-2.2-1.3-3C1376,124.2,1374.9,123.7,1373.5,123.7 M1343.8,119.9
	c6.1,0,9.2,3.9,9.2,11.8v17.1h-4.3v-17.1c0-5.3-1.9-8-5.7-8c-2.2,0-4.2,1.1-6,3.4c-1.8,2.2-2.7,5.3-2.8,9.3v12.4h-4.3v-22.5
	l-0.6-5.6l3.7-0.3l1.1,5.8c1.2-2,2.6-3.6,4.3-4.7C1340.3,120.5,1342.1,119.9,1343.8,119.9 M1307.1,149.6c-3.2,0-5.9-1.2-7.9-3.7
	c-2.1-2.4-3.1-5.9-3.1-10.5c0-4.6,1.3-8.3,3.9-11.2c2.6-2.9,5.9-4.3,9.7-4.3c3.9,0,7.4,1.1,10.5,3.3v20l0.6,5.6l-3.7,0.3l-1-5.1
	C1314,147.7,1311,149.6,1307.1,149.6 M1300.4,135.3c0,3.4,0.7,6,2.1,7.8c1.4,1.8,3.2,2.7,5.4,2.7c2.2,0,4.1-1.1,5.7-3.3
	c1.5-2.2,2.3-5.4,2.3-9.5v-7.8c-1.9-0.9-3.9-1.4-6-1.4c-2.8,0-5.1,1.1-6.9,3.3C1301.3,129.1,1300.4,131.9,1300.4,135.3
	 M1314.3,107.5c1.2,0,2.1,1,2.8,3l-10.1,8.3l-1.3-1.4l5.7-7.9C1312.4,108.2,1313.3,107.5,1314.3,107.5 M1282.9,148.8h-4.3v-22.5
	l-0.6-5.6l3.7-0.3l1.1,6.7c1.1-2.3,2.5-4.1,4.3-5.3c1.7-1.2,3.6-1.8,5.6-1.8l0.3,4.3c-6.6,0.5-10,5.6-10.2,15.1V148.8 M1263.1,148.8
	h-4.3v-22.5l-0.6-5.6l3.7-0.3l1.1,6.7c1.1-2.3,2.5-4.1,4.3-5.3c1.7-1.2,3.6-1.8,5.6-1.8l0.3,4.3c-6.6,0.5-10,5.6-10.2,15.1V148.8
	 M1241.1,149.6c-3.4,0-6.2-1.2-8.4-3.5c-2.2-2.4-3.3-5.8-3.3-10.4c0-4.6,1.3-8.3,3.9-11.3c2.6-3,5.9-4.4,10.1-4.4
	c2.6,0,4.7,0.8,6.3,2.4c1.6,1.6,2.4,3.6,2.4,6c0,2.4-1.2,4.5-3.7,6.5c-2.4,2-6,3-10.7,3c-1.2,0-2.5-0.1-3.9-0.2
	c0.3,2.7,1.1,4.7,2.4,6.1c1.4,1.4,3.1,2.1,5,2.1c3.3,0,6-1,8.1-3l2,2.8C1248.5,148.2,1245.1,149.6,1241.1,149.6 M1243.2,123.7
	c-2.6,0-4.7,0.9-6.5,2.8c-1.7,1.8-2.7,4.3-3,7.3c1.2,0.2,2.6,0.3,4.1,0.3c3.2,0,5.7-0.6,7.4-1.8c1.7-1.2,2.6-2.6,2.6-4.2
	c0-1.2-0.4-2.2-1.3-3C1245.7,124.2,1244.6,123.7,1243.2,123.7 M1210,124.3v-3.7h4.3l1.3-8.4h2.9v8.4h6.6v3.7h-6.6v18.3
	c0,2.1,0.8,3.1,2.5,3.1c1.3,0,2.7-0.5,4.2-1.6l1.6,2.9c-2.2,1.7-4.3,2.6-6.3,2.6s-3.6-0.5-4.7-1.5c-1-1-1.5-2.8-1.5-5.4v-18.3H1210
	 M1199.2,114.6c-0.4-0.5-0.7-1.2-0.7-2c0-0.8,0.2-1.4,0.7-1.9c0.4-0.5,1.1-0.8,2-0.8c0.9,0,1.5,0.3,2,0.8c0.5,0.5,0.7,1.2,0.7,1.9
	c0,0.7-0.2,1.4-0.7,1.9c-0.5,0.5-1.2,0.8-2,0.8C1200.3,115.3,1199.6,115.1,1199.2,114.6 M1199,148.8v-28.1h4.3v28.1H1199
	 M1175.8,149.6c-3.2,0-5.9-1.2-7.9-3.7c-2.1-2.4-3.1-5.9-3.1-10.5c0-4.6,1.3-8.3,3.9-11.2c2.6-2.9,5.9-4.3,9.9-4.3c2,0,4,0.4,6,1.1
	v-11.5h4.3v33.7l0.6,5.6l-3.7,0.3l-1-5.1C1182.7,147.7,1179.7,149.6,1175.8,149.6 M1169.1,135.3c0,3.4,0.7,6,2.1,7.8
	c1.4,1.8,3.2,2.7,5.4,2.7c2.2,0,4.1-1.1,5.7-3.3c1.5-2.2,2.3-5.4,2.3-9.5v-7.8c-1.9-0.9-3.9-1.4-6-1.4c-2.8,0-5.1,1.1-6.9,3.3
	C1170,129.1,1169.1,131.9,1169.1,135.3 M1149.2,149.6c-3.4,0-6.2-1.2-8.4-3.5c-2.2-2.4-3.3-5.8-3.3-10.4c0-4.6,1.3-8.3,3.9-11.3
	c2.6-3,5.9-4.4,10.1-4.4c2.6,0,4.7,0.8,6.3,2.4c1.6,1.6,2.4,3.6,2.4,6c0,2.4-1.2,4.5-3.7,6.5c-2.4,2-6,3-10.7,3
	c-1.2,0-2.5-0.1-3.9-0.2c0.3,2.7,1.1,4.7,2.4,6.1c1.4,1.4,3.1,2.1,5,2.1c3.3,0,6-1,8.1-3l2,2.8
	C1156.7,148.2,1153.3,149.6,1149.2,149.6 M1151.4,123.7c-2.6,0-4.7,0.9-6.5,2.8c-1.7,1.8-2.7,4.3-3,7.3c1.2,0.2,2.6,0.3,4.1,0.3
	c3.2,0,5.7-0.6,7.4-1.8c1.7-1.2,2.6-2.6,2.6-4.2c0-1.2-0.4-2.2-1.3-3C1153.9,124.2,1152.8,123.7,1151.4,123.7 M1093.8,148.8
	l1.4-38.2h5.2l11.7,26.9l11.8-26.9h5.2l1.4,38.2h-4.5l-1.1-29.9l-10.4,23.9h-4.7l-10.5-23.9l-1.1,29.9H1093.8"/>
<path id="path3769" fill="#374548" d="M1444.4,141.1c1.1,1.2,2.6,2.3,4.4,3.1c1.8,0.8,3.8,1.2,6,1.2c2.2,0,4-0.6,5.6-1.7
	c1.6-1.1,2.4-2.7,2.4-4.7c0-2.1-0.7-3.7-2-4.8c-1.3-1.2-2.9-2-4.8-2.6c-1.9-0.6-3.8-1.2-5.7-1.9c-1.9-0.7-3.5-1.8-4.8-3.3
	c-1.3-1.6-2-3.6-2-6.2c0-3.5,1.1-6.1,3.4-7.9c2.3-1.8,5-2.6,8-2.6c4.2,0,7.7,0.9,10.5,2.6l-2.2,3.6c-2.1-1.3-4.9-2-8.3-2
	c-1.8,0-3.4,0.5-4.8,1.5c-1.4,1-2.1,2.5-2.1,4.5c0,2.5,1.3,4.3,3.9,5.5c1.1,0.5,2.4,1,3.7,1.4c1.4,0.4,2.8,0.9,4.1,1.5
	c1.4,0.6,2.6,1.2,3.8,2c2.6,1.8,3.9,4.5,3.9,8.3c0,3.7-1.2,6.5-3.6,8.4c-2.4,1.8-5.4,2.8-9,2.8c-4.8,0-9.1-1.7-12.7-5.2
	L1444.4,141.1 M1425.7,145.6c3.8,0,5.7-2.5,5.7-7.6v-27.4h4.5V138c0,3.7-0.9,6.6-2.7,8.6c-1.8,2-4,3-6.9,3c-4.1,0-7.5-1.4-10.2-4.1
	l2.5-3.1C1420.8,144.6,1423.2,145.6,1425.7,145.6"/>
<path id="path3190" inkscape:connector-curvature="0" sodipodi:nodetypes="ccccccccccccccccc" fill="#374548" d="M970.8,129.7
	c0-1,0.2-1.9,0.5-2.8c0.4-0.9,0.9-1.7,1.5-2.3c0.7-0.7,1.4-1.2,2.3-1.6c0.9-0.4,1.8-0.6,2.8-0.6c1,0,1.9,0.2,2.8,0.6
	c0.9,0.4,1.7,0.9,2.3,1.6c0.7,0.7,1.2,1.4,1.5,2.3c0.4,0.9,0.6,1.8,0.6,2.8c0,1-0.2,2-0.6,2.9c-0.3,0.8-0.8,1.6-1.5,2.3
	c-0.7,0.7-1.4,1.2-2.3,1.6c-0.9,0.3-1.8,0.5-2.8,0.5c-1,0-1.9-0.2-2.8-0.5c-0.9-0.4-1.7-0.9-2.3-1.6c-0.6-0.7-1.1-1.4-1.5-2.3
	C971,131.7,970.8,130.7,970.8,129.7"/>
<path id="path3194" inkscape:connector-curvature="0" sodipodi:nodetypes="ccscccccccccccccccccscccc" fill="#37ABC8" d="M985,157.8
	c0-0.9-0.2-1.7-0.5-2.5c-0.3-0.8-0.8-1.5-1.4-2.1c-0.6-0.6-1.3-1.1-2.2-1.4c-0.8-0.3-1.8-0.5-2.8-0.5c-1.2,0-2.2,0.2-3.1,0.6
	c-0.9,0.4-1.7,1-2.3,1.8c-0.6,0.7-1.1,1.6-1.4,2.6c-0.3,1-0.5,2-0.5,3.2c0,1.7,0.3,3.5,0.8,5.4c0.5,1.8,1.2,3.7,2.1,5.5
	c0.9,1.8,2.1,3.6,3.5,5.4c1.3,1.7,2.9,3.3,4.6,4.8l1.7-1.7c0.5-0.5,0.8-1,0.8-1.6c0-0.5-0.3-1-0.8-1.6c-0.4-0.4-0.9-1-1.4-1.7
	c-0.6-0.7-1.2-1.5-1.8-2.4c-0.6-0.9-1.2-1.9-1.7-3.1c-0.5-1.1-0.9-2.3-1.2-3.6h0.8c1,0,1.9-0.2,2.7-0.5c0.8-0.3,1.5-0.8,2.1-1.4
	c0.6-0.7,1-1.4,1.4-2.3C984.8,159.8,985,158.8,985,157.8"/>
<path id="path3196" inkscape:connector-curvature="0" sodipodi:nodetypes="ccscccccccccccccccccscccc" fill="#37ABC8" d="M971,101.6
	c0,0.9,0.2,1.7,0.5,2.5c0.3,0.8,0.8,1.5,1.4,2.1c0.6,0.6,1.3,1.1,2.2,1.4c0.8,0.3,1.8,0.5,2.8,0.5c1.2,0,2.2-0.2,3.1-0.6
	c0.9-0.4,1.7-1,2.3-1.8c0.6-0.7,1.1-1.6,1.4-2.6c0.3-1,0.5-2,0.5-3.2c0-1.7-0.3-3.5-0.8-5.4c-0.5-1.8-1.2-3.7-2.1-5.5
	c-0.9-1.8-2.1-3.6-3.5-5.4c-1.3-1.7-2.9-3.3-4.6-4.8l-1.7,1.7c-0.5,0.5-0.8,1-0.8,1.6c0,0.5,0.3,1,0.8,1.6c0.4,0.4,0.9,1,1.4,1.7
	c0.6,0.7,1.2,1.5,1.8,2.4c0.6,0.9,1.2,1.9,1.7,3.1c0.5,1.1,0.9,2.3,1.2,3.6h-0.8c-1,0-1.9,0.2-2.7,0.5c-0.8,0.3-1.5,0.8-2.1,1.4
	c-0.6,0.7-1,1.4-1.4,2.3C971.2,99.6,971,100.5,971,101.6"/>
<path id="path3200" inkscape:connector-curvature="0" sodipodi:nodetypes="ccscccccccccccccccccscccc" fill="#37ABC8" d="
	M963.1,154.5c0.6-0.6,1.1-1.3,1.4-2.1c0.3-0.8,0.5-1.6,0.5-2.4c0-0.9-0.2-1.7-0.5-2.6c-0.4-0.8-0.9-1.6-1.6-2.3
	c-0.8-0.8-1.7-1.4-2.6-1.7c-1-0.4-1.9-0.5-2.9-0.3c-1,0.1-1.9,0.4-2.8,0.9c-0.9,0.5-1.8,1.1-2.6,1.9c-1.2,1.2-2.3,2.7-3.3,4.4
	c-1,1.7-1.7,3.5-2.4,5.4c-0.7,2-1.1,4-1.3,6.2c-0.3,2.2-0.3,4.4-0.1,6.7l2.4,0c0.7,0,1.2-0.2,1.7-0.6c0.4-0.4,0.5-0.9,0.5-1.7
	c0-0.6,0.1-1.3,0.2-2.2c0.1-0.9,0.2-1.9,0.4-3c0.2-1.1,0.5-2.2,1-3.3c0.4-1.2,1-2.3,1.7-3.3l0.5,0.5c0.7,0.7,1.5,1.2,2.3,1.6
	c0.8,0.3,1.7,0.5,2.5,0.5c0.9-0.1,1.7-0.3,2.6-0.6C961.6,155.8,962.3,155.2,963.1,154.5"/>
<path id="path3202" inkscape:connector-curvature="0" sodipodi:nodetypes="ccscccccccccccccccccscccc" fill="#37ABC8" d="M993,104.9
	c-0.6,0.6-1.1,1.3-1.4,2.1c-0.3,0.8-0.5,1.6-0.5,2.4c0,0.9,0.2,1.7,0.5,2.6c0.4,0.8,0.9,1.6,1.6,2.3c0.8,0.8,1.7,1.4,2.6,1.7
	c1,0.4,1.9,0.5,2.9,0.3c1-0.1,1.9-0.4,2.8-0.9c0.9-0.5,1.8-1.1,2.6-1.9c1.2-1.2,2.3-2.7,3.3-4.4c1-1.7,1.7-3.5,2.4-5.4
	c0.7-2,1.1-4,1.3-6.2c0.3-2.2,0.3-4.4,0.1-6.7l-2.4,0c-0.7,0-1.2,0.2-1.7,0.6c-0.4,0.4-0.5,0.9-0.5,1.7c0,0.6-0.1,1.3-0.2,2.2
	c-0.1,0.9-0.2,1.9-0.4,3c-0.2,1.1-0.5,2.2-1,3.3c-0.4,1.2-1,2.3-1.7,3.3l-0.5-0.5c-0.7-0.7-1.5-1.2-2.3-1.6
	c-0.8-0.3-1.7-0.5-2.5-0.5c-0.9,0.1-1.7,0.3-2.6,0.6C994.5,103.6,993.7,104.1,993,104.9"/>
<path id="path3206" inkscape:connector-curvature="0" sodipodi:nodetypes="ccscccccccccccccccccscccc" fill="#37ABC8" d="
	M949.9,136.7c0.9,0,1.7-0.2,2.5-0.5c0.8-0.3,1.5-0.8,2.1-1.4c0.6-0.6,1.1-1.3,1.4-2.2c0.3-0.8,0.5-1.8,0.5-2.8
	c0-1.2-0.2-2.2-0.6-3.1c-0.4-0.9-1-1.7-1.8-2.3c-0.7-0.6-1.6-1.1-2.6-1.4c-1-0.3-2-0.5-3.2-0.5c-1.7,0-3.5,0.3-5.4,0.8
	c-1.8,0.5-3.7,1.2-5.5,2.1c-1.8,0.9-3.6,2.1-5.4,3.5c-1.7,1.3-3.3,2.9-4.8,4.6l1.7,1.7c0.5,0.5,1,0.8,1.6,0.8c0.5,0,1-0.3,1.6-0.8
	c0.4-0.4,1-0.9,1.7-1.4c0.7-0.6,1.5-1.2,2.4-1.8c0.9-0.6,1.9-1.2,3.1-1.7c1.1-0.5,2.3-0.9,3.6-1.2v0.8c0,1,0.2,1.9,0.5,2.7
	s0.8,1.5,1.4,2.1c0.7,0.6,1.4,1,2.3,1.4C947.9,136.5,948.9,136.7,949.9,136.7"/>
<path id="path3208" inkscape:connector-curvature="0" sodipodi:nodetypes="ccscccccccccccccccccscccc" fill="#37ABC8" d="
	M1006.1,122.7c-0.9,0-1.7,0.2-2.5,0.5c-0.8,0.3-1.5,0.8-2.1,1.4c-0.6,0.6-1.1,1.3-1.4,2.2c-0.3,0.8-0.5,1.8-0.5,2.8
	c0,1.2,0.2,2.2,0.6,3.1c0.4,0.9,1,1.7,1.8,2.3c0.7,0.6,1.6,1.1,2.6,1.4c1,0.3,2,0.5,3.2,0.5c1.7,0,3.5-0.3,5.4-0.8
	c1.8-0.5,3.7-1.2,5.5-2.1c1.8-0.9,3.6-2.1,5.4-3.5c1.7-1.3,3.3-2.9,4.8-4.6l-1.7-1.7c-0.5-0.5-1-0.8-1.6-0.8c-0.5,0-1,0.3-1.6,0.8
	c-0.4,0.4-1,0.9-1.7,1.4c-0.7,0.6-1.5,1.2-2.4,1.8c-0.9,0.6-1.9,1.2-3.1,1.7c-1.1,0.5-2.3,0.9-3.6,1.2v-0.8c0-1-0.2-1.9-0.5-2.7
	s-0.8-1.5-1.4-2.1c-0.7-0.6-1.4-1-2.3-1.4C1008.1,122.8,1007.2,122.7,1006.1,122.7"/>
<path id="path3212" inkscape:connector-curvature="0" sodipodi:nodetypes="ccscccccccccccccccccscccc" fill="#37ABC8" d="
	M953.2,114.7c0.6,0.6,1.3,1.1,2.1,1.4c0.8,0.3,1.6,0.5,2.4,0.5c0.9,0,1.7-0.2,2.6-0.5c0.8-0.4,1.6-0.9,2.3-1.6
	c0.8-0.8,1.4-1.7,1.7-2.6c0.4-1,0.5-1.9,0.3-2.9c-0.1-1-0.4-1.9-0.9-2.8c-0.5-0.9-1.1-1.8-1.9-2.6c-1.2-1.2-2.7-2.3-4.4-3.3
	c-1.7-1-3.5-1.7-5.4-2.4c-2-0.7-4-1.1-6.2-1.3c-2.2-0.3-4.4-0.3-6.7-0.1l0,2.4c0,0.7,0.2,1.2,0.6,1.7c0.4,0.4,0.9,0.5,1.7,0.5
	c0.6,0,1.3,0.1,2.2,0.2c0.9,0.1,1.9,0.2,3,0.4c1.1,0.2,2.2,0.5,3.3,1c1.2,0.4,2.3,1,3.3,1.7l-0.5,0.5c-0.7,0.7-1.2,1.5-1.6,2.3
	c-0.3,0.8-0.5,1.7-0.5,2.5c0.1,0.9,0.3,1.7,0.6,2.6C951.9,113.2,952.5,114,953.2,114.7"/>
<path id="path3214" inkscape:connector-curvature="0" sodipodi:nodetypes="ccscccccccccccccccccscccc" fill="#37ABC8" d="
	M1002.8,144.6c-0.6-0.6-1.3-1.1-2.1-1.4c-0.8-0.3-1.6-0.5-2.4-0.5c-0.9,0-1.7,0.2-2.6,0.5c-0.8,0.4-1.6,0.9-2.3,1.6
	c-0.8,0.8-1.4,1.7-1.7,2.6c-0.4,1-0.5,1.9-0.3,2.9c0.1,1,0.4,1.9,0.9,2.8c0.5,0.9,1.1,1.8,1.9,2.6c1.2,1.2,2.7,2.3,4.4,3.3
	c1.7,1,3.5,1.7,5.4,2.4c2,0.7,4,1.1,6.2,1.3c2.2,0.3,4.4,0.3,6.7,0.1l0-2.4c0-0.7-0.2-1.2-0.6-1.7c-0.4-0.4-0.9-0.5-1.7-0.5
	c-0.6,0-1.3-0.1-2.2-0.2c-0.9-0.1-1.9-0.2-3-0.4c-1.1-0.2-2.2-0.5-3.3-1c-1.2-0.4-2.3-1-3.3-1.7l0.5-0.5c0.7-0.7,1.2-1.5,1.6-2.3
	c0.3-0.8,0.5-1.7,0.5-2.5c-0.1-0.9-0.3-1.7-0.6-2.6C1004.1,146.1,1003.6,145.3,1002.8,144.6"/>
<path id="path3216" inkscape:connector-curvature="0" fill="none" stroke="#37ABC8" stroke-width="1.3987" stroke-linecap="round" d="
	M1062.4,74.1v110"/>
</svg>
