<?xml version="1.0" encoding="utf-8"?>
<!-- Generator: Adobe Illustrator 18.1.0, SVG Export Plug-In . SVG Version: 6.00 Build 0)  -->
<!DOCTYPE svg PUBLIC "-//W3C//DTD SVG 1.1//EN" "http://www.w3.org/Graphics/SVG/1.1/DTD/svg11.dtd">
<svg version="1.1" id="Layer_1" xmlns="http://www.w3.org/2000/svg" xmlns:xlink="http://www.w3.org/1999/xlink" x="0px" y="0px"
	 viewBox="0 0 373.3 42.2" enable-background="new 0 0 373.3 42.2" xml:space="preserve">
<path id="path3765" fill="#37ABC8" d="M304.1,42.1c-3.2,0-5.9-1.2-7.9-3.7c-2.1-2.4-3.1-5.9-3.1-10.5c0-4.6,1.3-8.3,3.9-11.2
	c2.6-2.9,5.9-4.3,9.7-4.3c3.9,0,7.4,1.1,10.5,3.3v20l0.6,5.6l-3.7,0.3l-1-5.1C311,40.2,308,42.1,304.1,42.1 M297.4,27.8
	c0,3.4,0.7,6,2.1,7.8c1.4,1.8,3.2,2.7,5.4,2.7c2.2,0,4.1-1.1,5.7-3.3c1.5-2.2,2.3-5.4,2.3-9.5v-7.8c-1.9-0.9-3.9-1.4-6-1.4
	c-2.8,0-5.1,1.1-6.9,3.3C298.3,21.6,297.4,24.4,297.4,27.8 M277.5,42.1c-3.4,0-6.2-1.2-8.4-3.5c-2.2-2.4-3.3-5.8-3.3-10.4
	c0-4.6,1.3-8.3,3.9-11.3c2.6-3,5.9-4.4,10.1-4.4c2.6,0,4.7,0.8,6.3,2.4c1.6,1.6,2.4,3.6,2.4,6c0,2.4-1.2,4.5-3.7,6.5
	c-2.4,2-6,3-10.7,3c-1.2,0-2.5-0.1-3.9-0.2c0.3,2.7,1.1,4.7,2.4,6.1c1.4,1.4,3.1,2.1,5,2.1c3.3,0,6-1,8.1-3l2,2.8
	C285,40.7,281.6,42.1,277.5,42.1 M279.7,16.2c-2.6,0-4.7,0.9-6.5,2.8c-1.7,1.8-2.7,4.3-3,7.3c1.2,0.2,2.6,0.3,4.1,0.3
	c3.2,0,5.7-0.6,7.4-1.8c1.7-1.2,2.6-2.6,2.6-4.2c0-1.2-0.4-2.2-1.3-3C282.2,16.7,281.1,16.2,279.7,16.2 M250,12.4
	c6.1,0,9.2,3.9,9.2,11.8v17.1h-4.3V24.2c0-5.3-1.9-8-5.7-8c-2.2,0-4.2,1.1-6,3.4c-1.8,2.2-2.7,5.3-2.8,9.3v12.4h-4.3V18.8l-0.6-5.6
	l3.7-0.3l1.1,5.8c1.2-2,2.6-3.6,4.3-4.7C246.5,13,248.2,12.4,250,12.4 M213.3,42.1c-3.2,0-5.9-1.2-7.9-3.7
	c-2.1-2.4-3.1-5.9-3.1-10.5c0-4.6,1.3-8.3,3.9-11.2c2.6-2.9,5.9-4.3,9.7-4.3c3.9,0,7.4,1.1,10.5,3.3v20l0.6,5.6l-3.7,0.3l-1-5.1
	C220.2,40.2,217.2,42.1,213.3,42.1 M206.6,27.8c0,3.4,0.7,6,2.1,7.8c1.4,1.8,3.2,2.7,5.4,2.7c2.2,0,4.1-1.1,5.7-3.3
	c1.5-2.2,2.3-5.4,2.3-9.5v-7.8c-1.9-0.9-3.9-1.4-6-1.4c-2.8,0-5.1,1.1-6.9,3.3C207.5,21.6,206.6,24.4,206.6,27.8 M220.5,0
	c1.2,0,2.1,1,2.8,3l-10.1,8.3l-1.3-1.4l5.7-7.9C218.5,0.7,219.5,0,220.5,0 M189.1,41.3h-4.3V18.8l-0.6-5.6l3.7-0.3l1.1,6.7
	c1.1-2.3,2.5-4.1,4.3-5.3c1.7-1.2,3.6-1.8,5.6-1.8l0.3,4.3c-6.6,0.5-10,5.6-10.2,15.1V41.3 M169.3,41.3H165V18.8l-0.6-5.6l3.7-0.3
	l1.1,6.7c1.1-2.3,2.5-4.1,4.3-5.3c1.7-1.2,3.6-1.8,5.6-1.8l0.3,4.3c-6.6,0.5-10,5.6-10.2,15.1V41.3 M147.2,42.1
	c-3.4,0-6.2-1.2-8.4-3.5c-2.2-2.4-3.3-5.8-3.3-10.4c0-4.6,1.3-8.3,3.9-11.3c2.6-3,5.9-4.4,10.1-4.4c2.6,0,4.7,0.8,6.3,2.4
	c1.6,1.6,2.4,3.6,2.4,6c0,2.4-1.2,4.5-3.7,6.5c-2.4,2-6,3-10.7,3c-1.2,0-2.5-0.1-3.9-0.2c0.3,2.7,1.1,4.7,2.4,6.1
	c1.4,1.4,3.1,2.1,5,2.1c3.3,0,6-1,8.1-3l2,2.8C154.7,40.7,151.3,42.1,147.2,42.1 M149.4,16.2c-2.6,0-4.7,0.9-6.5,2.8
	c-1.7,1.8-2.7,4.3-3,7.3c1.2,0.2,2.6,0.3,4.1,0.3c3.2,0,5.7-0.6,7.4-1.8c1.7-1.2,2.6-2.6,2.6-4.2c0-1.2-0.4-2.2-1.3-3
	C151.9,16.7,150.8,16.2,149.4,16.2 M116.2,16.8v-3.7h4.3l1.3-8.4h2.9v8.4h6.6v3.7h-6.6v18.3c0,2.1,0.8,3.1,2.5,3.1
	c1.3,0,2.7-0.5,4.2-1.6l1.6,2.9c-2.2,1.7-4.3,2.6-6.3,2.6c-2.1,0-3.6-0.5-4.7-1.5c-1-1-1.5-2.8-1.5-5.4V16.8H116.2 M105.3,7.1
	c-0.4-0.5-0.7-1.2-0.7-2c0-0.8,0.2-1.4,0.7-1.9c0.4-0.5,1.1-0.8,2-0.8c0.9,0,1.5,0.3,2,0.8c0.5,0.5,0.7,1.2,0.7,1.9
	c0,0.7-0.2,1.4-0.7,1.9c-0.5,0.5-1.2,0.8-2,0.8C106.4,7.8,105.8,7.6,105.3,7.1 M105.2,41.3V13.2h4.3v28.1H105.2 M82,42.1
	c-3.2,0-5.9-1.2-7.9-3.7C72,36,71,32.5,71,27.9c0-4.6,1.3-8.3,3.9-11.2c2.6-2.9,5.9-4.3,9.9-4.3c2,0,4,0.4,6,1.1V2h4.3v33.7l0.6,5.6
	l-3.7,0.3l-1-5.1C88.9,40.2,85.9,42.1,82,42.1 M75.2,27.8c0,3.4,0.7,6,2.1,7.8c1.4,1.8,3.2,2.7,5.4,2.7c2.2,0,4.1-1.1,5.7-3.3
	c1.5-2.2,2.3-5.4,2.3-9.5v-7.8c-1.9-0.9-3.9-1.4-6-1.4c-2.8,0-5.1,1.1-6.9,3.3C76.1,21.6,75.2,24.4,75.2,27.8 M55.4,42.1
	c-3.4,0-6.2-1.2-8.4-3.5c-2.2-2.4-3.3-5.8-3.3-10.4c0-4.6,1.3-8.3,3.9-11.3c2.6-3,5.9-4.4,10.1-4.4c2.6,0,4.7,0.8,6.3,2.4
	c1.6,1.6,2.4,3.6,2.4,6c0,2.4-1.2,4.5-3.7,6.5c-2.4,2-6,3-10.7,3c-1.2,0-2.5-0.1-3.9-0.2c0.3,2.7,1.1,4.7,2.4,6.1
	c1.4,1.4,3.1,2.1,5,2.1c3.3,0,6-1,8.1-3l2,2.8C62.9,40.7,59.4,42.1,55.4,42.1 M57.5,16.2c-2.6,0-4.7,0.9-6.5,2.8
	c-1.7,1.8-2.7,4.3-3,7.3c1.2,0.2,2.6,0.3,4.1,0.3c3.2,0,5.7-0.6,7.4-1.8c1.7-1.2,2.6-2.6,2.6-4.2c0-1.2-0.4-2.2-1.3-3
	C60.1,16.7,59,16.2,57.5,16.2 M0,41.3L1.4,3.1h5.2L18.4,30L30.2,3.1h5.2l1.4,38.2h-4.5l-1.1-29.9L20.7,35.3h-4.7L5.6,11.4L4.5,41.3
	H0"/>
<path id="path3769" fill="#374548" d="M350.6,33.6c1.1,1.2,2.6,2.3,4.4,3.1c1.8,0.8,3.8,1.2,6,1.2c2.2,0,4-0.6,5.6-1.7
	c1.6-1.1,2.4-2.7,2.4-4.7c0-2.1-0.7-3.7-2-4.8c-1.3-1.2-2.9-2-4.8-2.6c-1.9-0.6-3.8-1.2-5.7-1.9c-1.9-0.7-3.5-1.8-4.8-3.3
	c-1.3-1.6-2-3.6-2-6.2c0-3.5,1.1-6.1,3.4-7.9c2.3-1.8,5-2.6,8-2.6c4.2,0,7.7,0.9,10.5,2.6l-2.2,3.6c-2.1-1.3-4.9-2-8.3-2
	c-1.8,0-3.4,0.5-4.8,1.5c-1.4,1-2.1,2.5-2.1,4.5c0,2.5,1.3,4.3,3.9,5.5c1.1,0.5,2.4,1,3.7,1.4c1.4,0.4,2.8,0.9,4.1,1.5
	c1.4,0.6,2.6,1.2,3.8,2c2.6,1.8,3.9,4.5,3.9,8.3c0,3.7-1.2,6.5-3.6,8.4c-2.4,1.8-5.4,2.8-9,2.8c-4.8,0-9.1-1.7-12.7-5.2L350.6,33.6
	 M331.9,38.1c3.8,0,5.7-2.5,5.7-7.6V3.1h4.5v27.4c0,3.7-0.9,6.6-2.7,8.6c-1.8,2-4,3-6.9,3c-4.1,0-7.5-1.4-10.2-4.1l2.5-3.1
	C327,37.1,329.4,38.1,331.9,38.1"/>
</svg>
