<?xml version="1.0" encoding="utf-8"?>
<!-- Generator: Adobe Illustrator 18.0.0, SVG Export Plug-In . SVG Version: 6.00 Build 0)  -->
<!DOCTYPE svg PUBLIC "-//W3C//DTD SVG 1.1//EN" "http://www.w3.org/Graphics/SVG/1.1/DTD/svg11.dtd">
<svg version="1.1" xmlns="http://www.w3.org/2000/svg" xmlns:xlink="http://www.w3.org/1999/xlink" x="0px" y="0px"
	 viewBox="0 0 35 35" enable-background="new 0 0 35 35" xml:space="preserve">
<g id="Capa_2">
	<circle fill="#374548" cx="17.5" cy="17.5" r="17.5"/>
</g>
<g id="Capa_1">
	<g>
		<g>
			<path id="smiley-icon_1_" fill="#FFFFFF" d="M17.5,7.5c-5.5,0-10,4.5-10,10c0,5.5,4.5,10,10,10c5.5,0,10-4.5,10-10
				C27.5,12,23,7.5,17.5,7.5z M20.7,13.5c0.9,0,1.7,0.7,1.7,1.7c0,0.9-0.7,1.7-1.7,1.7c-0.9,0-1.7-0.7-1.7-1.7
				C19.1,14.2,19.8,13.5,20.7,13.5z M14.5,13.5c0.9,0,1.7,0.7,1.7,1.7c0,0.9-0.7,1.7-1.7,1.7c-0.9,0-1.7-0.7-1.7-1.7
				C12.8,14.2,13.6,13.5,14.5,13.5z M17.6,22.8c-2.7,0-4.6-1.8-5.7-3.4l0.5-0.5c1.4,1.1,3,1.8,5.2,1.8c2.2,0,3.8-0.7,5.2-1.8
				l0.5,0.5C22.2,21.1,20.3,22.8,17.6,22.8z"/>
		</g>
	</g>
</g>
<g id="Capa_3">
	<path opacity="0.4" fill="#B3B8B9" d="M26.2,2.3L8.7,32.7c8.4,4.8,19.1,2,23.9-6.4C37.5,17.9,34.6,7.2,26.2,2.3z"/>
</g>
</svg>
