<?xml version="1.0" encoding="utf-8"?>
<!-- Generator: Adobe Illustrator 18.0.0, SVG Export Plug-In . SVG Version: 6.00 Build 0)  -->
<!DOCTYPE svg PUBLIC "-//W3C//DTD SVG 1.1//EN" "http://www.w3.org/Graphics/SVG/1.1/DTD/svg11.dtd">
<svg version="1.1" xmlns="http://www.w3.org/2000/svg" xmlns:xlink="http://www.w3.org/1999/xlink" x="0px" y="0px"
	 viewBox="0 0 45 45" enable-background="new 0 0 45 45" xml:space="preserve">
<g id="Capa_2">
	<path fill="#37ABC8" d="M0,22.5C0,10.1,10.1,0,22.5,0C34.9,0,45,10.1,45,22.5C45,34.9,34.9,45,22.5,45C10.1,45,0,34.9,0,22.5z"/>
</g>
<g id="Capa_1">
	<g>
		<g>
			<path id="smiley-icon_1_" fill="#FFFFFF" d="M22.5,11C16.2,11,11,16.2,11,22.5C11,28.9,16.2,34,22.5,34C28.9,34,34,28.9,34,22.5
				C34,16.2,28.9,11,22.5,11z M26.2,17.9c1.1,0,1.9,0.9,1.9,1.9c0,1.1-0.9,1.9-1.9,1.9c-1.1,0-1.9-0.9-1.9-1.9
				C24.3,18.7,25.1,17.9,26.2,17.9z M19,17.9c1.1,0,1.9,0.9,1.9,1.9c0,1.1-0.9,1.9-1.9,1.9c-1.1,0-1.9-0.9-1.9-1.9
				C17.1,18.7,18,17.9,19,17.9z M22.6,28.6c-3.1,0-5.3-2-6.6-3.9l0.5-0.5c1.7,1.3,3.5,2.1,6,2.1s4.4-0.8,6-2.1l0.5,0.5
				C28,26.6,25.7,28.6,22.6,28.6z"/>
		</g>
	</g>
</g>
<g id="Capa_3">
	<path opacity="0.4" fill="#B3DFEA" d="M33.7,3l-22.5,39C22,48.1,35.8,44.5,42,33.7C48.2,22.9,44.5,9.2,33.7,3z"/>
</g>
</svg>
