<?xml version="1.0" encoding="utf-8"?>
<!-- Generator: Adobe Illustrator 18.0.0, SVG Export Plug-In . SVG Version: 6.00 Build 0)  -->
<!DOCTYPE svg PUBLIC "-//W3C//DTD SVG 1.1//EN" "http://www.w3.org/Graphics/SVG/1.1/DTD/svg11.dtd">
<svg version="1.1" xmlns="http://www.w3.org/2000/svg" xmlns:xlink="http://www.w3.org/1999/xlink" x="0px" y="0px"
	 viewBox="0 0 45 45" enable-background="new 0 0 45 45" xml:space="preserve">
<g id="Capa_2">
	<path fill="#374548" d="M0,22.5C0,10.1,10.1,0,22.5,0C34.9,0,45,10.1,45,22.5C45,34.9,34.9,45,22.5,45C10.1,45,0,34.9,0,22.5z"/>
</g>
<g id="Capa_1">
	<g>
		<g>
			<path id="pencil-icon_3_" fill="#FFFFFF" d="M28.8,18.9l-7.4,12.9l-5.7,2.7l-0.4-6.2l7.4-12.9L28.8,18.9z M29.8,17.1l1.9-3.3
				l-6.1-3.5l-1.9,3.3L29.8,17.1z"/>
		</g>
	</g>
</g>
<g id="Capa_3">
	<path opacity="0.4" fill="#B3B8B9" d="M33.7,3l-22.5,39C22,48.1,35.8,44.5,42,33.7C48.2,22.9,44.5,9.2,33.7,3z"/>
</g>
</svg>
