<?xml version="1.0" encoding="utf-8"?>
<!-- Generator: Adobe Illustrator 18.1.0, SVG Export Plug-In . SVG Version: 6.00 Build 0)  -->
<!DOCTYPE svg PUBLIC "-//W3C//DTD SVG 1.1//EN" "http://www.w3.org/Graphics/SVG/1.1/DTD/svg11.dtd">
<svg version="1.1" xmlns="http://www.w3.org/2000/svg" xmlns:xlink="http://www.w3.org/1999/xlink" x="0px" y="0px"
	 viewBox="0 0 60 103.1" enable-background="new 0 0 60 103.1" xml:space="preserve">
<g id="marker">
	<path fill="none" stroke="#000000" stroke-width="3" d="M30,62.4"/>
</g>
<g id="dot">
	<path fill="#364549" d="M30,0C13.5,0,0,13.6,0,30.3c0,4.4,2.4,12.2,9.2,20.9C20.5,65.7,28,88.5,28.7,102l0.1,1h2.4l0.1-1
		c0.7-13.6,8.2-36.3,19.5-50.8c6.8-8.7,9.2-16.5,9.2-20.9C60,13.6,46.5,0,30,0z M29.9,41.5c-6.8,0-12.3-5.5-12.3-12.3
		c0-6.8,5.5-12.3,12.3-12.3c6.8,0,12.3,5.5,12.3,12.3C42.1,36,36.6,41.5,29.9,41.5z"/>
</g>
<g id="letter_arial_font" display="none">
	<g display="inline">
		<path d="M8.6,40.3L26.2-5.5h6.5l18.8,45.8h-6.9l-5.3-13.9H20.1l-5,13.9H8.6z M21.8,21.5h15.5L32.6,8.8c-1.5-3.9-2.5-7-3.2-9.5
			c-0.6,2.9-1.4,5.9-2.5,8.8L21.8,21.5z"/>
	</g>
</g>
</svg>
