<?xml version="1.0" encoding="utf-8"?>
<!-- Generator: Adobe Illustrator 18.1.0, SVG Export Plug-In . SVG Version: 6.00 Build 0)  -->
<!DOCTYPE svg PUBLIC "-//W3C//DTD SVG 1.1//EN" "http://www.w3.org/Graphics/SVG/1.1/DTD/svg11.dtd">
<svg version="1.1"
	 id="svg3654" xmlns:inkscape="http://www.inkscape.org/namespaces/inkscape" xmlns:dc="http://purl.org/dc/elements/1.1/" xmlns:svg="http://www.w3.org/2000/svg" xmlns:cc="http://creativecommons.org/ns#" xmlns:rdf="http://www.w3.org/1999/02/22-rdf-syntax-ns#" xmlns:sodipodi="http://sodipodi.sourceforge.net/DTD/sodipodi-0.dtd" sodipodi:docname="New document 5" inkscape:version="0.48.3.1 r9886"
	 xmlns="http://www.w3.org/2000/svg" xmlns:xlink="http://www.w3.org/1999/xlink" x="0px" y="0px" viewBox="927.2 78.8 101.7 101.7"
	 enable-background="new 927.2 78.8 101.7 101.7" xml:space="preserve">
<sodipodi:namedview  borderopacity="1.0" inkscape:zoom="0.24748737" fit-margin-top="0" inkscape:cx="698.6362" bordercolor="#666666" pagecolor="#ffffff" id="base" inkscape:cy="100.62619" showgrid="false" fit-margin-left="0" inkscape:current-layer="g3180" inkscape:window-x="49" fit-margin-right="0" inkscape:pageshadow="2" inkscape:document-units="px" inkscape:pageopacity="0.0" inkscape:window-y="24" fit-margin-bottom="0" inkscape:window-width="1317" inkscape:window-height="744" inkscape:window-maximized="1">
	</sodipodi:namedview>
<path id="path3190" inkscape:connector-curvature="0" sodipodi:nodetypes="ccccccccccccccccc" fill="#374548" d="M970.8,129.7
	c0-1,0.2-1.9,0.5-2.8c0.4-0.9,0.9-1.7,1.5-2.3c0.7-0.7,1.4-1.2,2.3-1.6c0.9-0.4,1.8-0.6,2.8-0.6c1,0,1.9,0.2,2.8,0.6
	c0.9,0.4,1.7,0.9,2.3,1.6c0.7,0.7,1.2,1.4,1.5,2.3c0.4,0.9,0.6,1.8,0.6,2.8c0,1-0.2,2-0.6,2.9c-0.3,0.8-0.8,1.6-1.5,2.3
	c-0.7,0.7-1.4,1.2-2.3,1.6c-0.9,0.3-1.8,0.5-2.8,0.5c-1,0-1.9-0.2-2.8-0.5c-0.9-0.4-1.7-0.9-2.3-1.6c-0.6-0.7-1.1-1.4-1.5-2.3
	C971,131.7,970.8,130.7,970.8,129.7"/>
<path id="path3194" inkscape:connector-curvature="0" sodipodi:nodetypes="ccscccccccccccccccccscccc" fill="#37ABC8" d="M985,157.8
	c0-0.9-0.2-1.7-0.5-2.5c-0.3-0.8-0.8-1.5-1.4-2.1c-0.6-0.6-1.3-1.1-2.2-1.4c-0.8-0.3-1.8-0.5-2.8-0.5c-1.2,0-2.2,0.2-3.1,0.6
	c-0.9,0.4-1.7,1-2.3,1.8c-0.6,0.7-1.1,1.6-1.4,2.6c-0.3,1-0.5,2-0.5,3.2c0,1.7,0.3,3.5,0.8,5.4c0.5,1.8,1.2,3.7,2.1,5.5
	c0.9,1.8,2.1,3.6,3.5,5.4c1.3,1.7,2.9,3.3,4.6,4.8l1.7-1.7c0.5-0.5,0.8-1,0.8-1.6c0-0.5-0.3-1-0.8-1.6c-0.4-0.4-0.9-1-1.4-1.7
	c-0.6-0.7-1.2-1.5-1.8-2.4c-0.6-0.9-1.2-1.9-1.7-3.1c-0.5-1.1-0.9-2.3-1.2-3.6h0.8c1,0,1.9-0.2,2.7-0.5c0.8-0.3,1.5-0.8,2.1-1.4
	c0.6-0.7,1-1.4,1.4-2.3C984.8,159.8,985,158.8,985,157.8"/>
<path id="path3196" inkscape:connector-curvature="0" sodipodi:nodetypes="ccscccccccccccccccccscccc" fill="#37ABC8" d="M971,101.6
	c0,0.9,0.2,1.7,0.5,2.5c0.3,0.8,0.8,1.5,1.4,2.1c0.6,0.6,1.3,1.1,2.2,1.4c0.8,0.3,1.8,0.5,2.8,0.5c1.2,0,2.2-0.2,3.1-0.6
	c0.9-0.4,1.7-1,2.3-1.8c0.6-0.7,1.1-1.6,1.4-2.6c0.3-1,0.5-2,0.5-3.2c0-1.7-0.3-3.5-0.8-5.4c-0.5-1.8-1.2-3.7-2.1-5.5
	c-0.9-1.8-2.1-3.6-3.5-5.4c-1.3-1.7-2.9-3.3-4.6-4.8l-1.7,1.7c-0.5,0.5-0.8,1-0.8,1.6c0,0.5,0.3,1,0.8,1.6c0.4,0.4,0.9,1,1.4,1.7
	c0.6,0.7,1.2,1.5,1.8,2.4c0.6,0.9,1.2,1.9,1.7,3.1c0.5,1.1,0.9,2.3,1.2,3.6h-0.8c-1,0-1.9,0.2-2.7,0.5c-0.8,0.3-1.5,0.8-2.1,1.4
	c-0.6,0.7-1,1.4-1.4,2.3C971.2,99.6,971,100.5,971,101.6"/>
<path id="path3200" inkscape:connector-curvature="0" sodipodi:nodetypes="ccscccccccccccccccccscccc" fill="#37ABC8" d="
	M963.1,154.5c0.6-0.6,1.1-1.3,1.4-2.1c0.3-0.8,0.5-1.6,0.5-2.4c0-0.9-0.2-1.7-0.5-2.6c-0.4-0.8-0.9-1.6-1.6-2.3
	c-0.8-0.8-1.7-1.4-2.6-1.7c-1-0.4-1.9-0.5-2.9-0.3c-1,0.1-1.9,0.4-2.8,0.9c-0.9,0.5-1.8,1.1-2.6,1.9c-1.2,1.2-2.3,2.7-3.3,4.4
	c-1,1.7-1.7,3.5-2.4,5.4c-0.7,2-1.1,4-1.3,6.2c-0.3,2.2-0.3,4.4-0.1,6.7l2.4,0c0.7,0,1.2-0.2,1.7-0.6c0.4-0.4,0.5-0.9,0.5-1.7
	c0-0.6,0.1-1.3,0.2-2.2c0.1-0.9,0.2-1.9,0.4-3c0.2-1.1,0.5-2.2,1-3.3c0.4-1.2,1-2.3,1.7-3.3l0.5,0.5c0.7,0.7,1.5,1.2,2.3,1.6
	c0.8,0.3,1.7,0.5,2.5,0.5c0.9-0.1,1.7-0.3,2.6-0.6C961.6,155.8,962.3,155.2,963.1,154.5"/>
<path id="path3202" inkscape:connector-curvature="0" sodipodi:nodetypes="ccscccccccccccccccccscccc" fill="#37ABC8" d="M993,104.9
	c-0.6,0.6-1.1,1.3-1.4,2.1c-0.3,0.8-0.5,1.6-0.5,2.4c0,0.9,0.2,1.7,0.5,2.6c0.4,0.8,0.9,1.6,1.6,2.3c0.8,0.8,1.7,1.4,2.6,1.7
	c1,0.4,1.9,0.5,2.9,0.3c1-0.1,1.9-0.4,2.8-0.9c0.9-0.5,1.8-1.1,2.6-1.9c1.2-1.2,2.3-2.7,3.3-4.4c1-1.7,1.7-3.5,2.4-5.4
	c0.7-2,1.1-4,1.3-6.2c0.3-2.2,0.3-4.4,0.1-6.7l-2.4,0c-0.7,0-1.2,0.2-1.7,0.6c-0.4,0.4-0.5,0.9-0.5,1.7c0,0.6-0.1,1.3-0.2,2.2
	c-0.1,0.9-0.2,1.9-0.4,3c-0.2,1.1-0.5,2.2-1,3.3c-0.4,1.2-1,2.3-1.7,3.3l-0.5-0.5c-0.7-0.7-1.5-1.2-2.3-1.6
	c-0.8-0.3-1.7-0.5-2.5-0.5c-0.9,0.1-1.7,0.3-2.6,0.6C994.5,103.6,993.7,104.1,993,104.9"/>
<path id="path3206" inkscape:connector-curvature="0" sodipodi:nodetypes="ccscccccccccccccccccscccc" fill="#37ABC8" d="
	M949.9,136.7c0.9,0,1.7-0.2,2.5-0.5c0.8-0.3,1.5-0.8,2.1-1.4c0.6-0.6,1.1-1.3,1.4-2.2c0.3-0.8,0.5-1.8,0.5-2.8
	c0-1.2-0.2-2.2-0.6-3.1c-0.4-0.9-1-1.7-1.8-2.3c-0.7-0.6-1.6-1.1-2.6-1.4c-1-0.3-2-0.5-3.2-0.5c-1.7,0-3.5,0.3-5.4,0.8
	c-1.8,0.5-3.7,1.2-5.5,2.1c-1.8,0.9-3.6,2.1-5.4,3.5c-1.7,1.3-3.3,2.9-4.8,4.6l1.7,1.7c0.5,0.5,1,0.8,1.6,0.8c0.5,0,1-0.3,1.6-0.8
	c0.4-0.4,1-0.9,1.7-1.4c0.7-0.6,1.5-1.2,2.4-1.8c0.9-0.6,1.9-1.2,3.1-1.7c1.1-0.5,2.3-0.9,3.6-1.2v0.8c0,1,0.2,1.9,0.5,2.7
	s0.8,1.5,1.4,2.1c0.7,0.6,1.4,1,2.3,1.4C947.9,136.5,948.9,136.7,949.9,136.7"/>
<path id="path3208" inkscape:connector-curvature="0" sodipodi:nodetypes="ccscccccccccccccccccscccc" fill="#37ABC8" d="
	M1006.1,122.7c-0.9,0-1.7,0.2-2.5,0.5c-0.8,0.3-1.5,0.8-2.1,1.4c-0.6,0.6-1.1,1.3-1.4,2.2c-0.3,0.8-0.5,1.8-0.5,2.8
	c0,1.2,0.2,2.2,0.6,3.1c0.4,0.9,1,1.7,1.8,2.3c0.7,0.6,1.6,1.1,2.6,1.4c1,0.3,2,0.5,3.2,0.5c1.7,0,3.5-0.3,5.4-0.8
	c1.8-0.5,3.7-1.2,5.5-2.1c1.8-0.9,3.6-2.1,5.4-3.5c1.7-1.3,3.3-2.9,4.8-4.6l-1.7-1.7c-0.5-0.5-1-0.8-1.6-0.8c-0.5,0-1,0.3-1.6,0.8
	c-0.4,0.4-1,0.9-1.7,1.4c-0.7,0.6-1.5,1.2-2.4,1.8c-0.9,0.6-1.9,1.2-3.1,1.7c-1.1,0.5-2.3,0.9-3.6,1.2v-0.8c0-1-0.2-1.9-0.5-2.7
	c-0.3-0.8-0.8-1.5-1.4-2.1c-0.7-0.6-1.4-1-2.3-1.4C1008.1,122.8,1007.2,122.7,1006.1,122.7"/>
<path id="path3212" inkscape:connector-curvature="0" sodipodi:nodetypes="ccscccccccccccccccccscccc" fill="#37ABC8" d="
	M953.2,114.7c0.6,0.6,1.3,1.1,2.1,1.4c0.8,0.3,1.6,0.5,2.4,0.5c0.9,0,1.7-0.2,2.6-0.5c0.8-0.4,1.6-0.9,2.3-1.6
	c0.8-0.8,1.4-1.7,1.7-2.6c0.4-1,0.5-1.9,0.3-2.9c-0.1-1-0.4-1.9-0.9-2.8c-0.5-0.9-1.1-1.8-1.9-2.6c-1.2-1.2-2.7-2.3-4.4-3.3
	c-1.7-1-3.5-1.7-5.4-2.4c-2-0.7-4-1.1-6.2-1.3c-2.2-0.3-4.4-0.3-6.7-0.1l0,2.4c0,0.7,0.2,1.2,0.6,1.7c0.4,0.4,0.9,0.5,1.7,0.5
	c0.6,0,1.3,0.1,2.2,0.2c0.9,0.1,1.9,0.2,3,0.4c1.1,0.2,2.2,0.5,3.3,1c1.2,0.4,2.3,1,3.3,1.7l-0.5,0.5c-0.7,0.7-1.2,1.5-1.6,2.3
	c-0.3,0.8-0.5,1.7-0.5,2.5c0.1,0.9,0.3,1.7,0.6,2.6C951.9,113.2,952.5,114,953.2,114.7"/>
<path id="path3214" inkscape:connector-curvature="0" sodipodi:nodetypes="ccscccccccccccccccccscccc" fill="#37ABC8" d="
	M1002.8,144.6c-0.6-0.6-1.3-1.1-2.1-1.4c-0.8-0.3-1.6-0.5-2.4-0.5c-0.9,0-1.7,0.2-2.6,0.5c-0.8,0.4-1.6,0.9-2.3,1.6
	c-0.8,0.8-1.4,1.7-1.7,2.6c-0.4,1-0.5,1.9-0.3,2.9c0.1,1,0.4,1.9,0.9,2.8c0.5,0.9,1.1,1.8,1.9,2.6c1.2,1.2,2.7,2.3,4.4,3.3
	c1.7,1,3.5,1.7,5.4,2.4c2,0.7,4,1.1,6.2,1.3c2.2,0.3,4.4,0.3,6.7,0.1l0-2.4c0-0.7-0.2-1.2-0.6-1.7c-0.4-0.4-0.9-0.5-1.7-0.5
	c-0.6,0-1.3-0.1-2.2-0.2c-0.9-0.1-1.9-0.2-3-0.4c-1.1-0.2-2.2-0.5-3.3-1c-1.2-0.4-2.3-1-3.3-1.7l0.5-0.5c0.7-0.7,1.2-1.5,1.6-2.3
	c0.3-0.8,0.5-1.7,0.5-2.5c-0.1-0.9-0.3-1.7-0.6-2.6C1004.1,146.1,1003.6,145.3,1002.8,144.6"/>
</svg>
