<?xml version="1.0" encoding="utf-8"?>
<!-- Generator: Adobe Illustrator 18.0.0, SVG Export Plug-In . SVG Version: 6.00 Build 0)  -->
<!DOCTYPE svg PUBLIC "-//W3C//DTD SVG 1.1//EN" "http://www.w3.org/Graphics/SVG/1.1/DTD/svg11.dtd">
<svg version="1.1" id="Capa_1" xmlns="http://www.w3.org/2000/svg" xmlns:xlink="http://www.w3.org/1999/xlink" x="0px" y="0px"
	 viewBox="0 0 182.9 354.3" enable-background="new 0 0 182.9 354.3" xml:space="preserve">
<g>
	<path fill="#FFFFFF" d="M129,241.4c-3-3-6.1-5.1-9.5-6.2c-3.5-1.3-6.9-1.7-10.4-1.2c-3.5,0.3-6.9,1.3-10.3,3.1
		c-3.3,1.7-6.4,4-9.4,7c-4.5,4.5-8.5,9.8-12,15.9c-3.5,6-6.3,12.6-8.6,19.6c-2.4,7.1-4,14.7-4.9,22.8c-1,7.9-1.1,16-0.5,24.3
		l8.8,0.1c2.5,0.1,4.5-0.6,6.1-2.2c1.3-1.3,1.9-3.3,1.9-6.1c0.1-2.1,0.3-4.8,0.7-8.2c0.2-3.4,0.7-7,1.5-11c0.8-4,2-8,3.6-12.2
		c1.5-4.3,3.6-8.3,6.2-12.2l1.9,1.9c2.6,2.6,5.3,4.5,8.3,5.7c3,1.2,6,1.8,9.2,1.8c3.2-0.2,6.3-0.9,9.4-2.2c3.1-1.5,6-3.6,8.6-6.2
		c2.3-2.3,4-4.8,5.2-7.6c1.2-3,1.8-6,1.8-8.9c0-3.2-0.7-6.3-1.9-9.4C133.5,246.9,131.5,244,129,241.4z"/>
	<path fill="#FFFFFF" d="M71.3,209.1c3.2,1.1,6.7,1.7,10.5,1.7c3.2,0,6.2-0.6,9.1-1.7c2.9-1.3,5.5-2.9,7.6-5.1c2.2-2.2,4-4.9,5.3-8
		c1.2-3.1,1.9-6.5,1.9-10.1c0-4.2-0.8-7.9-2.3-11.2c-1.5-3.4-3.7-6.1-6.5-8.2c-2.7-2.2-5.8-3.9-9.5-5c-3.5-1.1-7.4-1.7-11.6-1.7
		c-6.3,0-12.9,0.9-19.8,2.7c-6.7,1.8-13.4,4.4-19.9,7.8c-6.7,3.4-13.2,7.6-19.5,12.6C10.1,188,4.3,193.6-1,199.9l6.1,6.3
		c1.7,1.8,3.6,2.7,5.9,2.7c1.8,0,3.7-1,5.7-2.9c1.5-1.4,3.6-3.2,6.3-5.3c2.5-2.2,5.5-4.5,8.8-6.7c3.4-2.2,7.6-4.3,11.6-6.1
		c4.1-2,8.5-3.4,13.5-4.2v2.7c0,3.6,0.1,6.9,1.4,9.9c1.3,2.9,2.8,5.5,5,7.8C65.7,206.2,68.2,207.9,71.3,209.1z"/>
	<path fill="#FFFFFF" d="M51.1,81.4c2.1,0.1,4.8,0.3,8.2,0.7c3.4,0.2,7,0.7,11,1.5c4,0.8,8,2,12.2,3.6c4.3,1.5,8.3,3.6,12.2,6.3
		l-1.9,1.9c-2.6,2.6-4.5,5.4-5.6,8.3c-1.2,3-1.8,6-1.8,9.2c0.2,3.2,0.9,6.3,2.2,9.4c1.5,3.1,3.6,5.9,6.2,8.6c2.3,2.3,4.8,4,7.6,5.2
		c3,1.2,5.9,1.8,8.9,1.8c3.2,0,6.3-0.6,9.4-1.9c3.1-1.3,5.9-3.2,8.5-5.8c3-3,5-6.2,6.2-9.5c1.3-3.5,1.7-6.9,1.2-10.4
		c-0.3-3.5-1.3-6.9-3.1-10.3c-1.7-3.3-4-6.4-7-9.4c-4.4-4.5-9.8-8.5-15.9-12.1c-6-3.5-12.6-6.4-19.6-8.6c-7.1-2.4-14.7-4-22.7-4.9
		c-7.9-1-16-1.1-24.2-0.4l-0.2,8.8c-0.1,2.5,0.7,4.5,2.2,6.1C46.3,80.7,48.4,81.4,51.1,81.4z"/>
	<g>
		<path fill="#FFFFFF" d="M168.7,24c2.2,2.5,4.5,5.5,6.7,8.8c2.2,3.4,4.4,7.2,6.2,11.3c0.4,0.9,1.3,1.7,1.3,2.6V13
			c-4-4.6-8.5-8.9-13.2-13l-6.4,6.1c-1.8,1.7-2.8,3.6-2.8,5.9c0,1.8,1,3.7,2.9,5.7C164.9,19.2,166.6,21.3,168.7,24z"/>
		<path fill="#FFFFFF" d="M182.9,57.2c-3,0-6.8,0.6-9.7,1.8c-2.9,1.3-5.6,3-7.8,5.2c-2.1,2.4-3.8,5.1-5.1,8.2
			c-1.1,3.2-1.7,6.7-1.7,10.5c0,3.2,0.6,6.2,1.7,9c1.3,2.9,2.9,5.5,5,7.6c2.2,2.2,5,4,8.1,5.3c2.9,1.2,6.5,1.8,9.5,1.9V57.2z"/>
	</g>
	<path fill="#FFFFFF" d="M182.9,159c-3,0.1-6.3,0.8-9.2,2.1c-3.2,1.4-6.1,3.3-8.5,5.7c-2.2,2.4-4.1,5.2-5.5,8.4
		c-1.2,3.2-1.9,6.7-1.9,10.3c0,3.8,0.6,7.3,1.9,10.5c1.4,3.1,3.2,5.8,5.5,8.2c2.4,2.4,5.3,4.3,8.5,5.7c2.8,1.1,6.2,1.7,9.2,1.9V159z
		"/>
	<path fill="#FFFFFF" d="M182.9,264.1c-3,0.2-6.6,1-9.3,2.2c-3.4,1.5-6.2,3.7-8.3,6.5c-2.2,2.7-3.9,5.8-5.1,9.5
		c-1.1,3.5-1.7,7.4-1.7,11.6c0,6.3,0.9,12.9,2.7,19.8c1.8,6.7,4.4,13.4,7.8,20c3.4,6.7,7.7,13.3,12.7,19.6c0.3,0.4,1.1,0.8,1.1,1.2
		V264.1z"/>
</g>
</svg>
