<?xml version="1.0" encoding="utf-8"?>
<!-- Generator: Adobe Illustrator 18.0.0, SVG Export Plug-In . SVG Version: 6.00 Build 0)  -->
<!DOCTYPE svg PUBLIC "-//W3C//DTD SVG 1.1//EN" "http://www.w3.org/Graphics/SVG/1.1/DTD/svg11.dtd">
<svg version="1.1" xmlns="http://www.w3.org/2000/svg" xmlns:xlink="http://www.w3.org/1999/xlink" x="0px" y="0px"
	 viewBox="0 0 35 35" enable-background="new 0 0 35 35" xml:space="preserve">
<g id="Capa_2">
	<circle fill="#37ABC8" cx="17.5" cy="17.5" r="17.5"/>
</g>
<g id="Capa_1">
	<g>
		<g>
			<path id="pencil-icon_2_" fill="#FFFFFF" d="M18.4,8.6c4.6-4.1-0.9-3.9,0.1-6.8C14.8,5.6,19.8,5.6,18.4,8.6z M15.7,8.6
				c3.1-2.7-0.6-3,0.1-4.9C13.2,6.4,16.7,6.5,15.7,8.6z M25.1,11.5c-1,0-1.9-0.6-1.9-1.7H11.9c0,1.1-0.9,1.7-1.9,1.7V13h15.1V11.5
				L25.1,11.5z M11.1,15l2,14.1h8.8l2-14.1H11.1z M21.5,24h-7.8L13,18h9.2L21.5,24z"/>
		</g>
	</g>
</g>
<g id="Capa_3">
	<path opacity="0.4" fill="#B3DFEA" d="M26.2,2.3L8.7,32.7c8.4,4.8,19.1,2,23.9-6.4C37.5,17.9,34.6,7.2,26.2,2.3z"/>
</g>
</svg>
