<?xml version="1.0" encoding="utf-8"?>
<!-- Generator: Adobe Illustrator 18.0.0, SVG Export Plug-In . SVG Version: 6.00 Build 0)  -->
<!DOCTYPE svg PUBLIC "-//W3C//DTD SVG 1.1//EN" "http://www.w3.org/Graphics/SVG/1.1/DTD/svg11.dtd">
<svg version="1.1" xmlns="http://www.w3.org/2000/svg" xmlns:xlink="http://www.w3.org/1999/xlink" x="0px" y="0px"
	 viewBox="0 0 35 35" enable-background="new 0 0 35 35" xml:space="preserve">
<g id="Capa_2">
	<circle fill="#374548" cx="17.5" cy="17.5" r="17.5"/>
</g>
<g id="Capa_1">
	<g>
		<g>
			<path fill="#FFFFFF" d="M23.5,19H11.4c-1,0-2.4,0.6-2.4,1.4v0.7C9,22,10.5,23,11.4,23h12.1c1,0,1.5-1,1.5-1.8v-0.7
				C25,19.6,24.4,19,23.5,19z"/>
			<path fill="#FFFFFF" d="M10.5,15h13.9c0.4,0,0.8-0.5,0.8-1c0-2.7-1.3-5.9-7.8-5.9c-6.4,0-7.8,3.3-7.8,6C9.7,14.5,10,15,10.5,15z"
				/>
			<path fill="#FFFFFF" d="M25.9,16H9.1c-0.4,0-0.8,0.4-0.8,1c0,0.6,0.4,1,0.8,1h16.7c0.4,0,0.8-0.4,0.8-1
				C26.7,16.4,26.3,16,25.9,16z"/>
		</g>
	</g>
</g>
<g id="Capa_3">
	<path opacity="0.4" fill="#B3B8B9" d="M26.2,2.3L8.7,32.7c8.4,4.8,19.1,2,23.9-6.4C37.5,17.9,34.6,7.2,26.2,2.3z"/>
</g>
</svg>
