<?xml version="1.0" encoding="utf-8"?>
<!-- Generator: Adobe Illustrator 18.0.0, SVG Export Plug-In . SVG Version: 6.00 Build 0)  -->
<!DOCTYPE svg PUBLIC "-//W3C//DTD SVG 1.1//EN" "http://www.w3.org/Graphics/SVG/1.1/DTD/svg11.dtd">
<svg version="1.1" xmlns="http://www.w3.org/2000/svg" xmlns:xlink="http://www.w3.org/1999/xlink" x="0px" y="0px"
	 viewBox="0 0 35 35" enable-background="new 0 0 35 35" xml:space="preserve">
<g id="Capa_2">
	<circle fill="#374548" cx="17.5" cy="17.5" r="17.5"/>
</g>
<g id="Capa_1">
	<g>
		<path fill="#FFFFFF" d="M17.5,6.5c-4,0-7.3,3.3-7.3,7.3c0,5.4,5.3,12.4,7.3,14.8c1.9-2.3,7.3-9.2,7.3-14.8
			C24.8,9.7,21.5,6.5,17.5,6.5z M17.5,17.7c-2.2,0-4-1.8-4-4c0-2.2,1.8-4,4-4c2.2,0,4,1.8,4,4C21.5,15.9,19.7,17.7,17.5,17.7z"/>
	</g>
</g>
<g id="Capa_3">
	<path opacity="0.4" fill="#B3B8B9" d="M26.2,2.3L8.7,32.7c8.4,4.8,19.1,2,23.9-6.4C37.5,17.9,34.6,7.2,26.2,2.3z"/>
</g>
</svg>
