<?xml version="1.0" encoding="utf-8"?>
<!-- Generator: Adobe Illustrator 18.0.0, SVG Export Plug-In . SVG Version: 6.00 Build 0)  -->
<!DOCTYPE svg PUBLIC "-//W3C//DTD SVG 1.1//EN" "http://www.w3.org/Graphics/SVG/1.1/DTD/svg11.dtd">
<svg version="1.1" xmlns="http://www.w3.org/2000/svg" xmlns:xlink="http://www.w3.org/1999/xlink" x="0px" y="0px"
	 viewBox="0 0 35 35" enable-background="new 0 0 35 35" xml:space="preserve">
<g id="Capa_2">
	<circle fill="#37ABC8" cx="17.5" cy="17.5" r="17.5"/>
</g>
<g id="Capa_1">
	<g>
		<path id="calendar-5-icon_3_" fill="#FFFFFF" d="M25,9v2h-4V9h-8v2c-1,0-4,0-4,0V9H7v17h20V9H25z M25,24H9V13h16V24z"/>
		<rect x="10" y="14" fill="#FFFFFF" width="4" height="4"/>
		<rect x="15" y="14" fill="#FFFFFF" width="4" height="4"/>
		<rect x="20" y="14" fill="#FFFFFF" width="4" height="4"/>
		<rect x="10" y="19" fill="#FFFFFF" width="4" height="4"/>
		<rect x="15" y="19" fill="#FFFFFF" width="4" height="4"/>
		<rect x="20" y="19" fill="#FFFFFF" width="4" height="4"/>
		<rect x="10" y="8" fill="#FFFFFF" width="2" height="2"/>
		<rect x="22" y="8" fill="#FFFFFF" width="2" height="2"/>
	</g>
</g>
<g id="Capa_3">
	<path opacity="0.4" fill="#B3DFEA" d="M26.2,2.3L8.7,32.7c8.4,4.8,19.1,2,23.9-6.4C37.5,17.9,34.6,7.2,26.2,2.3z"/>
</g>
</svg>
