<?xml version="1.0" encoding="utf-8"?>
<!-- Generator: Adobe Illustrator 18.0.0, SVG Export Plug-In . SVG Version: 6.00 Build 0)  -->
<!DOCTYPE svg PUBLIC "-//W3C//DTD SVG 1.1//EN" "http://www.w3.org/Graphics/SVG/1.1/DTD/svg11.dtd">
<svg version="1.1" xmlns="http://www.w3.org/2000/svg" xmlns:xlink="http://www.w3.org/1999/xlink" x="0px" y="0px"
	 viewBox="0 0 35 35" enable-background="new 0 0 35 35" xml:space="preserve">
<g id="Capa_2">
	<circle fill="#37ABC8" cx="-297.5" cy="17.5" r="17.5"/>
	<circle fill="#374548" cx="17.5" cy="17.5" r="17.5"/>
	<circle fill="#37ABC8" cx="-117.5" cy="17.5" r="17.5"/>
	<circle fill="#374548" cx="197.5" cy="17.5" r="17.5"/>
	<circle fill="#37ABC8" cx="-207.5" cy="17.5" r="17.5"/>
	<circle fill="#374548" cx="107.5" cy="17.5" r="17.5"/>
	<circle fill="#37ABC8" cx="-27.5" cy="17.5" r="17.5"/>
	<circle fill="#374548" cx="287.5" cy="17.5" r="17.5"/>
	<circle fill="#37ABC8" cx="-252.5" cy="17.5" r="17.5"/>
	<circle fill="#374548" cx="62.5" cy="17.5" r="17.5"/>
	<circle fill="#37ABC8" cx="-72.5" cy="17.5" r="17.5"/>
	<circle fill="#374548" cx="242.5" cy="17.5" r="17.5"/>
	<circle fill="#37ABC8" cx="-162.5" cy="17.5" r="17.5"/>
	<circle fill="#374548" cx="152.5" cy="17.5" r="17.5"/>
</g>
<g id="Capa_1">
	<g>
		<path id="pencil-icon_5_" fill="#FFFFFF" d="M-113.4,14.8l-5.8,10l-4.4,2.1l-0.3-4.8l5.8-10L-113.4,14.8z M-112.6,13.4l1.5-2.5
			l-4.7-2.7l-1.5,2.5L-112.6,13.4z"/>
	</g>
	<g>
		<path id="pencil-icon_3_" fill="#FFFFFF" d="M201.6,14.8l-5.8,10l-4.4,2.1l-0.3-4.8l5.8-10L201.6,14.8z M202.4,13.4l1.5-2.5
			l-4.7-2.7l-1.5,2.5L202.4,13.4z"/>
	</g>
	<g>
		<path id="pencil-icon_2_" fill="#FFFFFF" d="M-206.4,7.9c4.5-4-0.9-3.8,0.1-6.6C-209.8,4.9-204.9,5-206.4,7.9z M-209,7.9
			c3-2.7-0.6-2.9,0.1-4.8C-211.4,5.8-208,5.8-209,7.9z M-200,10.7c0,0-1.7-0.7-1.7-1.7h-11c0,1-1.3,1.7-2.3,1.7V12h15V10.7
			L-200,10.7z M-213.5,14l2,14h8.6l2-14H-213.5z M-203.8,22h-6.8l-0.6-4h8L-203.8,22z"/>
	</g>
	<g>
		<path id="pencil-icon_1_" fill="#FFFFFF" d="M108.6,7.9c4.5-4-0.9-3.8,0.1-6.6C105.2,4.9,110.1,5,108.6,7.9z M106,7.9
			c3-2.7-0.6-2.9,0.1-4.8C103.6,5.8,107,5.8,106,7.9z M115,10.7c0,0-1.7-0.7-1.7-1.7h-11c0,1-1.3,1.7-2.3,1.7V12h15V10.7L115,10.7z
			 M101.5,14l2,14h8.6l2-14H101.5z M111.2,22h-6.8l-0.6-4h8L111.2,22z"/>
	</g>
	<g>
		<g>
			<path fill="#FFFFFF" d="M-66.5,19h-12.1c-1,0-2.4,0.6-2.4,1.4v0.7c0,0.9,1.5,1.8,2.4,1.8h12.1c1,0,1.5-1,1.5-1.8v-0.7
				C-65,19.6-65.6,19-66.5,19z"/>
			<path fill="#FFFFFF" d="M-79.5,15h13.9c0.4,0,0.8-0.5,0.8-1c0-2.7-1.3-5.9-7.8-5.9c-6.4,0-7.8,3.3-7.8,6
				C-80.3,14.5-80,15-79.5,15z"/>
			<path fill="#FFFFFF" d="M-64.1,16h-16.7c-0.4,0-0.8,0.4-0.8,1c0,0.6,0.4,1,0.8,1h16.7c0.4,0,0.8-0.4,0.8-1
				C-63.3,16.4-63.7,16-64.1,16z"/>
		</g>
	</g>
	<g>
		<g>
			<path fill="#FFFFFF" d="M248.5,19h-12.1c-1,0-2.4,0.6-2.4,1.4v0.7c0,0.9,1.5,1.8,2.4,1.8h12.1c1,0,1.5-1,1.5-1.8v-0.7
				C250,19.6,249.4,19,248.5,19z"/>
			<path fill="#FFFFFF" d="M235.5,15h13.9c0.4,0,0.8-0.5,0.8-1c0-2.7-1.3-5.9-7.8-5.9c-6.4,0-7.8,3.3-7.8,6
				C234.7,14.5,235,15,235.5,15z"/>
			<path fill="#FFFFFF" d="M250.9,16h-16.7c-0.4,0-0.8,0.4-0.8,1c0,0.6,0.4,1,0.8,1h16.7c0.4,0,0.8-0.4,0.8-1
				C251.7,16.4,251.3,16,250.9,16z"/>
		</g>
	</g>
	<g>
		<g>
			<path id="smiley-icon" fill="#FFFFFF" d="M-27.5,7.5c-5.5,0-10,4.5-10,10c0,5.5,4.5,10,10,10c5.5,0,10-4.5,10-10
				C-17.5,12-22,7.5-27.5,7.5z M-24.3,13.5c0.9,0,1.7,0.7,1.7,1.7c0,0.9-0.7,1.7-1.7,1.7c-0.9,0-1.7-0.7-1.7-1.7
				C-25.9,14.2-25.2,13.5-24.3,13.5z M-30.5,13.5c0.9,0,1.7,0.7,1.7,1.7c0,0.9-0.7,1.7-1.7,1.7c-0.9,0-1.7-0.7-1.7-1.7
				C-32.2,14.2-31.4,13.5-30.5,13.5z M-27.4,22.8c-2.7,0-4.6-1.8-5.7-3.4l0.5-0.5c1.4,1.1,3,1.8,5.2,1.8c2.2,0,3.8-0.7,5.2-1.8
				l0.5,0.5C-22.8,21.1-24.7,22.8-27.4,22.8z"/>
		</g>
	</g>
	<g>
		<g>
			<path id="smiley-icon_1_" fill="#FFFFFF" d="M287.5,7.5c-5.5,0-10,4.5-10,10c0,5.5,4.5,10,10,10c5.5,0,10-4.5,10-10
				C297.5,12,293,7.5,287.5,7.5z M290.7,13.5c0.9,0,1.7,0.7,1.7,1.7c0,0.9-0.7,1.7-1.7,1.7c-0.9,0-1.7-0.7-1.7-1.7
				C289.1,14.2,289.8,13.5,290.7,13.5z M284.5,13.5c0.9,0,1.7,0.7,1.7,1.7c0,0.9-0.7,1.7-1.7,1.7c-0.9,0-1.7-0.7-1.7-1.7
				C282.8,14.2,283.6,13.5,284.5,13.5z M287.6,22.8c-2.7,0-4.6-1.8-5.7-3.4l0.5-0.5c1.4,1.1,3,1.8,5.2,1.8c2.2,0,3.8-0.7,5.2-1.8
				l0.5,0.5C292.2,21.1,290.3,22.8,287.6,22.8z"/>
		</g>
	</g>
	<g>
		<path fill="#FFFFFF" d="M-252.5,6.5c-4,0-7.3,3.3-7.3,7.3c0,5.4,5.3,12.4,7.3,14.8c1.9-2.3,7.3-9.2,7.3-14.8
			C-245.2,9.7-248.5,6.5-252.5,6.5z M-252.5,17.7c-2.2,0-4-1.8-4-4c0-2.2,1.8-4,4-4c2.2,0,4,1.8,4,4
			C-248.5,15.9-250.3,17.7-252.5,17.7z"/>
	</g>
	<g>
		<path fill="#FFFFFF" d="M62.5,6.5c-4,0-7.3,3.3-7.3,7.3c0,5.4,5.3,12.4,7.3,14.8c1.9-2.3,7.3-9.2,7.3-14.8
			C69.8,9.7,66.5,6.5,62.5,6.5z M62.5,17.7c-2.2,0-4-1.8-4-4c0-2.2,1.8-4,4-4c2.2,0,4,1.8,4,4C66.5,15.9,64.7,17.7,62.5,17.7z"/>
	</g>
	<g>
		<rect x="-171" y="10" fill="#FFFFFF" width="17" height="10"/>
		<polygon fill="#FFFFFF" points="-159,18 -159,19.6 -162.5,26 -166,19.6 -166,18 -165.7,18 		"/>
	</g>
	<g>
		<rect x="144" y="10" fill="#FFFFFF" width="17" height="10"/>
		<polygon fill="#FFFFFF" points="156,18 156,19.6 152.5,26 149,19.6 149,18 149.3,18 		"/>
	</g>
	<g>
		<path id="calendar-5-icon_3_" fill="#FFFFFF" d="M-290,9v2h-4V9h-8v2c-1,0-4,0-4,0V9h-2v17h20V9H-290z M-290,24h-16V13h16V24z"/>
		<rect x="-305" y="14" fill="#FFFFFF" width="4" height="4"/>
		<rect x="-300" y="14" fill="#FFFFFF" width="4" height="4"/>
		<rect x="-295" y="14" fill="#FFFFFF" width="4" height="4"/>
		<rect x="-305" y="19" fill="#FFFFFF" width="4" height="4"/>
		<rect x="-300" y="19" fill="#FFFFFF" width="4" height="4"/>
		<rect x="-295" y="19" fill="#FFFFFF" width="4" height="4"/>
		<rect x="-305" y="8" fill="#FFFFFF" width="2" height="2"/>
		<rect x="-293" y="8" fill="#FFFFFF" width="2" height="2"/>
	</g>
	<g>
		<path id="calendar-5-icon_1_" fill="#FFFFFF" d="M25,9v2h-4V9h-8v2c-1,0-4,0-4,0V9H7v17h20V9H25z M25,24H9V13h16V24z"/>
		<rect x="10" y="14" fill="#FFFFFF" width="4" height="4"/>
		<rect x="15" y="14" fill="#FFFFFF" width="4" height="4"/>
		<rect x="20" y="14" fill="#FFFFFF" width="4" height="4"/>
		<rect x="10" y="19" fill="#FFFFFF" width="4" height="4"/>
		<rect x="15" y="19" fill="#FFFFFF" width="4" height="4"/>
		<rect x="20" y="19" fill="#FFFFFF" width="4" height="4"/>
		<rect x="10" y="8" fill="#FFFFFF" width="2" height="2"/>
		<rect x="22" y="8" fill="#FFFFFF" width="2" height="2"/>
	</g>
</g>
<g id="Capa_3">
	<path opacity="0.4" fill="#B3DFEA" d="M-288.8,2.3l-17.5,30.3c8.4,4.8,19.1,2,23.9-6.4C-277.5,17.9-280.4,7.2-288.8,2.3z"/>
	<path opacity="0.4" fill="#B3B8B9" d="M26.2,2.3L8.7,32.7c8.4,4.8,19.1,2,23.9-6.4C37.5,17.9,34.6,7.2,26.2,2.3z"/>
	<path opacity="0.4" fill="#B3DFEA" d="M-108.8,2.3l-17.5,30.3c8.4,4.8,19.1,2,23.9-6.4C-97.5,17.9-100.4,7.2-108.8,2.3z"/>
	<path opacity="0.4" fill="#B3B8B9" d="M206.2,2.3l-17.5,30.3c8.4,4.8,19.1,2,23.9-6.4C217.5,17.9,214.6,7.2,206.2,2.3z"/>
	<path opacity="0.4" fill="#B3DFEA" d="M-198.8,2.3l-17.5,30.3c8.4,4.8,19.1,2,23.9-6.4C-187.5,17.9-190.4,7.2-198.8,2.3z"/>
	<path opacity="0.4" fill="#B3B8B9" d="M116.2,2.3L98.7,32.7c8.4,4.8,19.1,2,23.9-6.4C127.5,17.9,124.6,7.2,116.2,2.3z"/>
	<path opacity="0.4" fill="#B3DFEA" d="M-18.8,2.3l-17.5,30.3c8.4,4.8,19.1,2,23.9-6.4C-7.5,17.9-10.4,7.2-18.8,2.3z"/>
	<path opacity="0.4" fill="#B3B8B9" d="M296.2,2.3l-17.5,30.3c8.4,4.8,19.1,2,23.9-6.4C307.5,17.9,304.6,7.2,296.2,2.3z"/>
	<path opacity="0.4" fill="#B3DFEA" d="M-243.8,2.3l-17.5,30.3c8.4,4.8,19.1,2,23.9-6.4C-232.5,17.9-235.4,7.2-243.8,2.3z"/>
	<path opacity="0.4" fill="#B3B8B9" d="M71.2,2.3L53.7,32.7c8.4,4.8,19.1,2,23.9-6.4C82.5,17.9,79.6,7.2,71.2,2.3z"/>
	<path opacity="0.4" fill="#B3DFEA" d="M-63.8,2.3l-17.5,30.3c8.4,4.8,19.1,2,23.9-6.4C-52.5,17.9-55.4,7.2-63.8,2.3z"/>
	<path opacity="0.4" fill="#B3B8B9" d="M251.2,2.3l-17.5,30.3c8.4,4.8,19.1,2,23.9-6.4C262.5,17.9,259.6,7.2,251.2,2.3z"/>
	<path opacity="0.4" fill="#B3DFEA" d="M-153.8,2.3l-17.5,30.3c8.4,4.8,19.1,2,23.9-6.4C-142.5,17.9-145.4,7.2-153.8,2.3z"/>
	<path opacity="0.4" fill="#B3B8B9" d="M161.2,2.3l-17.5,30.3c8.4,4.8,19.1,2,23.9-6.4C172.5,17.9,169.6,7.2,161.2,2.3z"/>
</g>
</svg>
