<?xml version="1.0" encoding="utf-8"?>
<!-- Generator: Adobe Illustrator 18.0.0, SVG Export Plug-In . SVG Version: 6.00 Build 0)  -->
<!DOCTYPE svg PUBLIC "-//W3C//DTD SVG 1.1//EN" "http://www.w3.org/Graphics/SVG/1.1/DTD/svg11.dtd">
<svg version="1.1" xmlns="http://www.w3.org/2000/svg" xmlns:xlink="http://www.w3.org/1999/xlink" x="0px" y="0px"
	 viewBox="0 0 45 45" enable-background="new 0 0 45 45" xml:space="preserve">
<g id="Capa_2">
	<path fill="#374548" d="M0,22.5C0,10.1,10.1,0,22.5,0C34.9,0,45,10.1,45,22.5C45,34.9,34.9,45,22.5,45C10.1,45,0,34.9,0,22.5z"/>
</g>
<g id="Capa_1">
	<g>
		<g>
			<path id="pencil-icon_2_" fill="#FFFFFF" d="M23.6,11.5c5.8-5.2-1.2-4.9,0.1-8.5C19.1,7.6,25.4,7.7,23.6,11.5z M20.2,11.5
				c3.8-3.4-0.8-3.8,0.1-6.2C17.1,8.7,21.5,8.8,20.2,11.5z M32,15.1c-1.3,0-2.4-0.7-2.4-2.1H15.4c0,1.4-1.1,2.1-2.4,2.1v1.8H32V15.1
				L32,15.1z M14.5,19L17,36.7h11L30.5,19H14.5z M27.5,30h-9.3l-0.8-6h11L27.5,30z"/>
		</g>
	</g>
</g>
<g id="Capa_3">
	<path opacity="0.4" fill="#B3B8B9" d="M33.7,3l-22.5,39C22,48.1,35.8,44.5,42,33.7C48.2,22.9,44.5,9.2,33.7,3z"/>
</g>
</svg>
