<?xml version="1.0" encoding="utf-8"?>
<!-- Generator: Adobe Illustrator 18.0.0, SVG Export Plug-In . SVG Version: 6.00 Build 0)  -->
<!DOCTYPE svg PUBLIC "-//W3C//DTD SVG 1.1//EN" "http://www.w3.org/Graphics/SVG/1.1/DTD/svg11.dtd">
<svg version="1.1" xmlns="http://www.w3.org/2000/svg" xmlns:xlink="http://www.w3.org/1999/xlink" x="0px" y="0px"
	 viewBox="0 0 45 45" enable-background="new 0 0 45 45" xml:space="preserve">
<g id="Capa_2">
	<path fill="#374548" d="M0,22.5C0,10.1,10.1,0,22.5,0C34.9,0,45,10.1,45,22.5C45,34.9,34.9,45,22.5,45C10.1,45,0,34.9,0,22.5z"/>
</g>
<g id="Capa_1">
	<g>
		<g>
			<g>
				<path fill="#FFFFFF" d="M32,28.2c0-1.2-1-2.2-2.2-2.2H14.2C13,26,12,27,12,28.2v0.6c0,1.2,1,2.2,2.2,2.2h15.6
					c1.2,0,2.2-1,2.2-2.2V28.2z"/>
				<path fill="#FFFFFF" d="M13.5,22h17.9c0.6,0,1-0.4,1-0.9c0-3.4-1.7-7.4-10-7.4c-8.3,0-10,4-10,7.4C12.5,21.6,12.9,22,13.5,22z"
					/>
				<path fill="#FFFFFF" d="M33.2,23H11.8c-0.6,0-1,0.4-1,1s0.5,1,1,1h21.5c0.6,0,1-0.4,1-1C34.3,23.4,33.8,23,33.2,23z"/>
			</g>
		</g>
	</g>
</g>
<g id="Capa_3">
	<path opacity="0.4" fill="#B3B8B9" d="M33.7,3l-22.5,39C22,48.1,35.8,44.5,42,33.7C48.2,22.9,44.5,9.2,33.7,3z"/>
</g>
</svg>
