<?xml version="1.0" encoding="utf-8"?>
<!-- Generator: Adobe Illustrator 18.0.0, SVG Export Plug-In . SVG Version: 6.00 Build 0)  -->
<!DOCTYPE svg PUBLIC "-//W3C//DTD SVG 1.1//EN" "http://www.w3.org/Graphics/SVG/1.1/DTD/svg11.dtd">
<svg version="1.1" xmlns="http://www.w3.org/2000/svg" xmlns:xlink="http://www.w3.org/1999/xlink" x="0px" y="0px"
	 viewBox="0 0 45 45" enable-background="new 0 0 45 45" xml:space="preserve">
<g id="Capa_2">
	<path fill="#37ABC8" d="M0,22.5C0,10.1,10.1,0,22.5,0C34.9,0,45,10.1,45,22.5C45,34.9,34.9,45,22.5,45C10.1,45,0,34.9,0,22.5z"/>
</g>
<g id="Capa_1">
	<g>
		<path id="calendar-5-icon_1_" fill="#FFFFFF" d="M32,13v2h-5v-2H17v2c-1,0-5,0-5,0v-2h-2v20h24V13H32z M32,31H12V17h20V31z"/>
		<rect x="14" y="19" fill="#FFFFFF" width="4" height="4"/>
		<rect x="20" y="19" fill="#FFFFFF" width="4" height="4"/>
		<rect x="26" y="19" fill="#FFFFFF" width="4" height="4"/>
		<rect x="14" y="25" fill="#FFFFFF" width="4" height="4"/>
		<rect x="20" y="25" fill="#FFFFFF" width="4" height="4"/>
		<rect x="26" y="25" fill="#FFFFFF" width="4" height="4"/>
		<rect x="13" y="11" fill="#FFFFFF" width="3" height="3"/>
		<rect x="28" y="11" fill="#FFFFFF" width="3" height="3"/>
	</g>
</g>
<g id="Capa_3">
	<path opacity="0.4" fill="#B3DFEA" d="M33.7,3l-22.5,39C22,48.1,35.8,44.5,42,33.7C48.2,22.9,44.5,9.2,33.7,3z"/>
</g>
</svg>
