<?xml version="1.0" encoding="utf-8"?>
<!-- Generator: Adobe Illustrator 18.0.0, SVG Export Plug-In . SVG Version: 6.00 Build 0)  -->
<!DOCTYPE svg PUBLIC "-//W3C//DTD SVG 1.1//EN" "http://www.w3.org/Graphics/SVG/1.1/DTD/svg11.dtd">
<svg version="1.1" id="Capa_1" xmlns="http://www.w3.org/2000/svg" xmlns:xlink="http://www.w3.org/1999/xlink" x="0px" y="0px"
	 viewBox="0 0 30 30" enable-background="new 0 0 30 30" xml:space="preserve">
<path id="email-icon" fill="#B1B6B8" d="M11.4-79L7-82.4v7.8L11.4-79z M22-84H7.1l7.4,5.7L22-84z M16.6-78.3l-2.1,1.6l-2.1-1.7L7-73
	h15L16.6-78.3z M17.6-79l4.4,4.4v-7.8L17.6-79z"/>
<path id="phone-icon" fill="#B1B6B8" d="M21.1,21.9l-2.6-5c0,0-1.4,0.7-1.5,0.8c-1.6,0.8-4.9-5.8-3.4-6.7l1.5-0.8l-2.5-5.1
	c0,0-1.5,0.8-1.5,0.8c-1,0.6-3.9,1.9,0.4,10.3c4.3,8.5,6.9,7,8.1,6.4C19.7,22.7,21.1,21.9,21.1,21.9z"/>
</svg>
